#N canvas -15 5 1366 677 12;
#X msg 534 57 stop;
#X obj 725 176 + 1;
#X obj 632 6 bng 19 250 50 0 empty empty empty 0 -10 0 12 #fcfcfc #000000 #000000;
#X msg 534 157 0;
#X obj 593 374 spigot;
#X obj 663 355 tgl 19 0 empty empty empty 0 -10 0 12 #fcfcfc #000000 #000000 0 1;
#X obj 593 313 spigot;
#X floatatom 534 195 5 0 0 0 - - - 0;
#X obj 632 213 % 3;
#X obj 632 264 == 0;
#X obj 544 332 bng 19 250 50 0 empty empty empty 0 -10 0 12 #fcfcfc #000000 #000000;
#X obj 271 356 spigot;
#X obj 342 337 tgl 19 0 empty empty empty 0 -10 0 12 #fcfcfc #000000 #000000 0 1;
#X obj 271 295 spigot;
#X obj 310 246 == 0;
#X obj 222 314 bng 19 250 50 0 empty empty empty 0 -10 0 12 #fcfcfc #000000 #000000;
#X obj 854 356 spigot;
#X obj 924 337 tgl 19 0 empty empty empty 0 -10 0 12 #fcfcfc #000000 #000000 0 1;
#X obj 854 295 spigot;
#X obj 893 246 == 0;
#X obj 805 314 bng 19 250 50 0 empty empty empty 0 -10 0 12 #fcfcfc #000000 #000000;
#X obj 1142 356 spigot;
#X obj 1210 337 tgl 19 0 empty empty empty 0 -10 0 12 #fcfcfc #000000 #000000 0 1;
#X obj 1142 295 spigot;
#X obj 1181 246 == 0;
#X obj 1093 314 bng 19 250 50 0 empty empty empty 0 -10 0 12 #fcfcfc #000000 #000000;
#X obj 893 195 % 4;
#X obj 534 7 bng 19 250 50 0 empty empty empty 0 -10 0 12 #fcfcfc #000000 #000000;
#X obj 632 176 i;
#X obj 1380 519 send Clap;
#X obj 632 76 metro 170;
#X msg 361 565 disconnect;
#X floatatom 717 624 0 0 0 0 - - - 0;
#X obj 716 592 netsend -u -b;
#X msg 326 528 connect localhost 3003;
#X obj 294 433 oscformat /HitHat;
#X obj 546 432 oscformat /Clap;
#X obj 797 439 oscformat /Bongo;
#X obj 1118 435 oscformat /Snap;
#X obj 1181 195 % 6;
#X obj 310 195 % 1;
#X connect 0 0 3 0;
#X connect 0 0 30 0;
#X connect 1 0 28 1;
#X connect 2 0 30 0;
#X connect 3 0 28 0;
#X connect 4 0 36 0;
#X connect 5 0 4 1;
#X connect 6 0 10 0;
#X connect 6 0 4 0;
#X connect 8 0 9 0;
#X connect 9 0 6 0;
#X connect 9 0 6 1;
#X connect 11 0 35 0;
#X connect 12 0 11 1;
#X connect 13 0 11 0;
#X connect 13 0 15 0;
#X connect 14 0 13 1;
#X connect 14 0 13 0;
#X connect 16 0 37 0;
#X connect 17 0 16 1;
#X connect 18 0 16 0;
#X connect 18 0 20 0;
#X connect 19 0 18 0;
#X connect 19 0 18 1;
#X connect 21 0 38 0;
#X connect 22 0 21 1;
#X connect 23 0 21 0;
#X connect 23 0 25 0;
#X connect 24 0 23 0;
#X connect 24 0 23 1;
#X connect 26 0 19 0;
#X connect 27 0 0 0;
#X connect 28 0 1 0;
#X connect 28 0 7 0;
#X connect 28 0 8 0;
#X connect 28 0 26 0;
#X connect 28 0 39 0;
#X connect 28 0 40 0;
#X connect 30 0 28 0;
#X connect 31 0 33 0;
#X connect 33 0 32 0;
#X connect 34 0 33 0;
#X connect 35 0 33 0;
#X connect 36 0 33 0;
#X connect 37 0 33 0;
#X connect 38 0 33 0;
#X connect 39 0 24 0;
#X connect 40 0 14 0;
