#N canvas 174 31 1366 677 12;
#X msg 534 57 stop;
#X obj 725 176 + 1;
#X obj 632 6 bng 19 250 50 0 empty empty empty 0 -10 0 12 #fcfcfc #000000 #000000;
#X msg 534 157 0;
#X obj 593 374 spigot;
#X obj 663 355 tgl 19 0 empty empty empty 0 -10 0 12 #fcfcfc #000000 #000000 0 1;
#X obj 593 313 spigot;
#X floatatom 534 195 5 0 0 0 - - - 0;
#X obj 632 213 % 3;
#X obj 632 264 == 0;
#X obj 544 332 bng 19 250 50 0 empty empty empty 0 -10 0 12 #fcfcfc #000000 #000000;
#X obj 271 356 spigot;
#X obj 342 337 tgl 19 0 empty empty empty 0 -10 0 12 #fcfcfc #000000 #000000 0 1;
#X obj 271 295 spigot;
#X obj 310 246 == 0;
#X obj 222 314 bng 19 250 50 0 empty empty empty 0 -10 0 12 #fcfcfc #000000 #000000;
#X obj 854 356 spigot;
#X obj 924 337 tgl 19 0 empty empty empty 0 -10 0 12 #fcfcfc #000000 #000000 0 1;
#X obj 854 295 spigot;
#X obj 893 246 == 0;
#X obj 805 314 bng 19 250 50 0 empty empty empty 0 -10 0 12 #fcfcfc #000000 #000000;
#X obj 1142 356 spigot;
#X obj 1210 337 tgl 19 0 empty empty empty 0 -10 0 12 #fcfcfc #000000 #000000 0 1;
#X obj 1142 295 spigot;
#X obj 1181 246 == 0;
#X obj 1093 314 bng 19 250 50 0 empty empty empty 0 -10 0 12 #fcfcfc #000000 #000000;
#X obj 310 195 % 1;
#X obj 893 195 % 4;
#X obj 1181 195 % 6;
#X obj 534 7 bng 19 250 50 0 empty empty empty 0 -10 0 12 #fcfcfc #000000 #000000;
#X obj 632 176 i;
#X obj 846 497 bng 19 250 50 0 empty empty empty 0 -10 0 12 #fcfcfc #000000 #000000;
#X obj 846 585 readsf~;
#X obj 846 633 dac~;
#X obj 1138 500 bng 19 250 50 0 empty empty empty 0 -10 0 12 #fcfcfc #000000 #000000;
#X obj 1138 588 readsf~;
#X obj 1138 636 dac~;
#X obj 272 498 bng 19 250 50 0 empty empty empty 0 -10 0 12 #fcfcfc #000000 #000000;
#X obj 272 586 readsf~;
#X obj 272 672 dac~;
#X obj 593 499 bng 19 250 50 0 empty empty empty 0 -10 0 12 #fcfcfc #000000 #000000;
#X obj 593 587 readsf~;
#X obj 593 635 dac~;
#X obj 593 465 receive Clap;
#X msg 593 542 open clap.wav \, 1;
#X obj 593 419 send Clap;
#X msg 846 541 open bongo.wav \, 1;
#X obj 854 401 send Bongo;
#X obj 846 463 receive Bongo;
#X msg 1138 544 open finger-snap2.wav \, 1;
#X msg 272 541 open hit-hat.wav \, 1;
#X obj 273 626 *~ 0.2;
#X obj 632 76 metro 170;
#X obj 271 406 send Hit Hat;
#X obj 272 464 receive Hit Hat;
#X obj 1142 406 send Finger Snap;
#X obj 1138 466 receive Finger Snap;
#X connect 0 0 3 0;
#X connect 0 0 52 0;
#X connect 1 0 30 1;
#X connect 2 0 52 0;
#X connect 3 0 30 0;
#X connect 4 0 45 0;
#X connect 5 0 4 1;
#X connect 6 0 10 0;
#X connect 6 0 4 0;
#X connect 8 0 9 0;
#X connect 9 0 6 0;
#X connect 9 0 6 1;
#X connect 11 0 53 0;
#X connect 12 0 11 1;
#X connect 13 0 11 0;
#X connect 13 0 15 0;
#X connect 14 0 13 1;
#X connect 14 0 13 0;
#X connect 16 0 47 0;
#X connect 17 0 16 1;
#X connect 18 0 16 0;
#X connect 18 0 20 0;
#X connect 19 0 18 0;
#X connect 19 0 18 1;
#X connect 21 0 55 0;
#X connect 22 0 21 1;
#X connect 23 0 21 0;
#X connect 23 0 25 0;
#X connect 24 0 23 0;
#X connect 24 0 23 1;
#X connect 26 0 14 0;
#X connect 27 0 19 0;
#X connect 28 0 24 0;
#X connect 29 0 0 0;
#X connect 30 0 1 0;
#X connect 30 0 7 0;
#X connect 30 0 26 0;
#X connect 30 0 8 0;
#X connect 30 0 27 0;
#X connect 30 0 28 0;
#X connect 31 0 46 0;
#X connect 32 0 33 0;
#X connect 32 0 33 1;
#X connect 34 0 49 0;
#X connect 35 0 36 0;
#X connect 35 0 36 1;
#X connect 37 0 50 0;
#X connect 38 0 51 0;
#X connect 40 0 44 0;
#X connect 41 0 42 0;
#X connect 41 0 42 1;
#X connect 43 0 40 0;
#X connect 44 0 41 0;
#X connect 46 0 32 0;
#X connect 48 0 31 0;
#X connect 49 0 35 0;
#X connect 50 0 38 0;
#X connect 51 0 39 0;
#X connect 51 0 39 1;
#X connect 52 0 30 0;
#X connect 54 0 37 0;
#X connect 56 0 34 0;
